HIERARCHY
ROOT Hips
{
	OFFSET -0.001795 -0.223333 0.028219
	CHANNELS 6 Xposition Yposition Zposition Zrotation Yrotation Xrotation 
	JOINT LeftUpLeg
	{
		OFFSET 0.069520 -0.091406 -0.006815
		CHANNELS 3 Zrotation Yrotation Xrotation
		JOINT LeftLeg
		{
			OFFSET 0.034277 -0.375199 -0.004496
			CHANNELS 3 Zrotation Yrotation Xrotation
			JOINT LeftFoot
			{
				OFFSET -0.013596 -0.397961 -0.043693
				CHANNELS 3 Zrotation Yrotation Xrotation
				JOINT LeftToe
				{
					OFFSET 0.026358 -0.055791 0.119288
					CHANNELS 3 Zrotation Yrotation Xrotation
					End Site
					{
						OFFSET 0.000000 0.000000 0.000000
					}
				}
			}
		}
	}
	JOINT RightUpLeg
	{
		OFFSET -0.067670 -0.090522 -0.004320
		CHANNELS 3 Zrotation Yrotation Xrotation
		JOINT RightLeg
		{
			OFFSET -0.038290 -0.382569 -0.008850
			CHANNELS 3 Zrotation Yrotation Xrotation
			JOINT RightFoot
			{
				OFFSET 0.015774 -0.398415 -0.042312
				CHANNELS 3 Zrotation Yrotation Xrotation
				JOINT RightToe
				{
					OFFSET -0.025372 -0.048144 0.123348
					CHANNELS 3 Zrotation Yrotation Xrotation
					End Site
					{
						OFFSET 0.000000 0.000000 0.000000
					}
				}
			}
		}
	}
	JOINT Spine
	{
		OFFSET -0.002533 0.108963 -0.026696
		CHANNELS 3 Zrotation Yrotation Xrotation
		JOINT Spine1
		{
			OFFSET 0.005487 0.135180 0.001092
			CHANNELS 3 Zrotation Yrotation Xrotation
			JOINT Spine2
			{
				OFFSET 0.001457 0.052922 0.025425
				CHANNELS 3 Zrotation Yrotation Xrotation
				JOINT Neck
				{
					OFFSET -0.002778 0.213870 -0.042857
					CHANNELS 3 Zrotation Yrotation Xrotation
					JOINT Head
					{
						OFFSET 0.005152 0.064970 0.051349
						CHANNELS 3 Zrotation Yrotation Xrotation
						End Site
						{
							OFFSET 0.000000 0.000000 0.000000
						}
					}
				}
				JOINT LeftShoulder
				{
					OFFSET 0.078845 0.121749 -0.034090
					CHANNELS 3 Zrotation Yrotation Xrotation
					JOINT LeftArm
					{
						OFFSET 0.090977 0.030469 -0.008868
						CHANNELS 3 Zrotation Yrotation Xrotation
						JOINT LeftForeArm
						{
							OFFSET 0.259612 -0.012772 -0.027456
							CHANNELS 3 Zrotation Yrotation Xrotation
							JOINT LeftHand
							{
								OFFSET 0.249234 0.008986 -0.001171
								CHANNELS 3 Zrotation Yrotation Xrotation
								End Site
								{
									OFFSET 0.000000 0.000000 0.000000
								}
							}
						}
					}
				}
				JOINT RightShoulder
				{
					OFFSET -0.081759 0.118833 -0.038615
					CHANNELS 3 Zrotation Yrotation Xrotation
					JOINT RightArm
					{
						OFFSET -0.096012 0.032551 -0.009143
						CHANNELS 3 Zrotation Yrotation Xrotation
						JOINT RightForeArm
						{
							OFFSET -0.253742 -0.013329 -0.021401
							CHANNELS 3 Zrotation Yrotation Xrotation
							JOINT RightHand
							{
								OFFSET -0.255298 0.007772 -0.005559
								CHANNELS 3 Zrotation Yrotation Xrotation
								End Site
								{
									OFFSET 0.000000 0.000000 0.000000
								}
							}
						}
					}
				}
			}
		}
	}
}
MOTION
Frames: 7
Frame Time: 0.050000
0.000000 0.897083 0.000000 1.784122 8.130378 -2.435964 -3.679175 -1.599225 -12.760248 3.816737 -1.903345 17.425302 5.309229 11.142204 0.851927 0.000000 0.000000 0.000000 -2.466457 1.676612 -27.967992 -1.692722 1.179587 43.726336 -1.207650 -2.430406 -1.639043 0.000000 0.000000 0.000000 2.669836 -1.382976 17.947231 3.886862 -1.846317 -0.519988 -0.618472 -2.974158 6.534481 0.655902 -0.178958 -4.119047 0.000000 0.000000 0.000000 -23.147445 -6.022298 0.985141 -54.733466 -3.243634 -5.298227 -8.930970 -37.127986 4.464366 0.000000 0.000000 0.000000 16.233613 7.244485 2.504070 56.303304 5.289461 -3.355793 -5.154441 34.912947 -0.127955 0.000000 0.000000 0.000000 
0.000526 0.894479 0.013236 1.681488 7.787776 -2.065779 -3.826557 -1.493939 -11.952452 4.461507 -2.017080 17.006562 5.858746 11.595267 -1.236528 0.000000 0.000000 0.000000 -1.279794 2.044573 -28.930816 -3.637910 2.327754 45.258512 -0.326014 -1.484042 1.635705 0.000000 0.000000 0.000000 2.868883 -1.409084 17.909807 3.350531 -1.441085 -2.138342 0.037408 -3.926306 8.653284 -0.251627 0.379274 -2.997294 0.000000 0.000000 0.000000 -20.790484 -4.916747 0.908553 -57.638928 -3.567771 -5.747412 -9.630673 -38.723539 5.155259 0.000000 0.000000 0.000000 13.420515 6.560398 2.034846 58.023404 5.940636 -3.342817 -3.231367 36.122592 0.422080 0.000000 0.000000 0.000000 
0.000549 0.891402 0.026108 1.631126 6.272363 -0.892697 -3.064707 -1.476406 -12.459480 3.435502 -1.748947 17.493821 6.795384 13.173083 -2.928508 0.000000 0.000000 0.000000 -1.528145 2.223643 -31.071104 -3.407265 2.656527 48.250400 0.875247 1.823375 0.759146 0.000000 0.000000 0.000000 2.921551 -1.286417 16.786625 2.782348 -1.087073 -3.420866 -0.329506 -3.222021 10.046040 0.463048 -0.067017 -4.563495 0.000000 0.000000 0.000000 -18.541866 -3.589832 0.340610 -58.610798 -4.204950 -5.650371 -12.106467 -38.313232 6.018061 0.000000 0.000000 0.000000 13.392600 4.758286 1.225751 58.605612 6.129820 -3.407444 -0.085121 36.526204 1.465703 0.000000 0.000000 0.000000 
-0.000165 0.889633 0.037543 2.146705 7.463236 0.163591 -3.522860 -1.603864 -13.108536 3.503865 -1.849222 17.952182 6.587771 12.378030 -3.979355 0.000000 0.000000 0.000000 -2.538656 1.933099 -33.591626 -4.504537 3.160907 51.269700 1.424908 3.412896 0.334347 0.000000 0.000000 0.000000 2.958056 -1.341635 16.877062 2.900608 -1.201762 -2.452012 -0.025256 -4.670630 8.656630 -0.351818 0.493287 -4.079197 0.000000 0.000000 0.000000 -17.103016 -3.053982 0.315752 -60.186291 -4.747050 -5.353112 -12.632677 -39.651877 6.528380 0.000000 0.000000 0.000000 11.472877 4.468592 0.977171 60.371791 6.359836 -3.224742 0.729654 38.070190 1.664308 0.000000 0.000000 0.000000 
-0.002987 0.890326 0.048242 2.189459 7.485096 1.009215 -2.692232 -1.508134 -13.046534 2.514111 -1.539106 17.417690 6.543499 12.244450 -4.147778 0.000000 0.000000 0.000000 -3.920886 1.546815 -34.776884 -3.051450 2.291780 52.613569 0.588522 0.380824 2.348984 0.000000 0.000000 0.000000 2.867784 -1.316622 16.652751 2.705946 -1.031732 -3.477034 -0.319758 -4.439230 9.828424 0.429442 0.055688 -6.269964 0.000000 0.000000 0.000000 -15.346921 -3.706068 0.688457 -60.777639 -5.474660 -5.107219 -13.516573 -39.654971 6.843399 0.000000 0.000000 0.000000 11.106172 4.628466 1.154438 61.127239 7.201015 -2.911762 -0.015103 38.284117 1.523266 0.000000 0.000000 0.000000 
-0.007958 0.890518 0.057983 1.906676 7.635777 1.917796 -1.633835 -1.488263 -13.729522 1.984557 -1.443044 17.850229 6.470912 12.117266 -4.113705 0.000000 0.000000 0.000000 -4.243599 1.441350 -35.191705 -2.319437 1.774698 52.839439 -0.065758 -2.874202 6.881845 0.000000 0.000000 0.000000 2.113084 -1.198325 16.511944 3.266422 -1.201930 -4.435028 0.043208 -4.400752 10.552653 0.576340 0.088249 -8.174033 0.000000 0.000000 0.000000 -14.232562 -3.021773 0.401273 -62.536878 -5.321897 -5.369191 -14.975425 -40.543127 7.596274 0.000000 0.000000 0.000000 10.039897 4.937208 1.372892 62.826802 7.374142 -2.926495 -0.382535 39.974119 1.535607 0.000000 0.000000 0.000000 
-0.015802 0.887515 0.067519 1.236216 7.479729 2.756378 -0.280846 -1.520913 -15.201100 1.967342 -1.601541 19.813962 6.755493 12.593360 -4.853361 0.000000 0.000000 0.000000 -3.563341 1.665855 -34.784940 -1.259010 1.095591 54.237021 -1.117114 -7.051591 14.144085 0.000000 0.000000 0.000000 2.060055 -1.265748 17.301264 3.049922 -1.066818 -4.961907 0.631703 -4.149689 10.158954 0.274621 0.254143 -7.258099 0.000000 0.000000 0.000000 -15.336096 -3.216591 0.416080 -60.426286 -5.623676 -5.009920 -15.590104 -41.736071 8.039371 0.000000 0.000000 0.000000 10.611629 5.890223 1.791266 62.359894 8.015470 -2.508925 0.395853 41.300989 1.868766 0.000000 0.000000 0.000000 
